HIERARCHY
ROOT Hips
{
	OFFSET 0.00000 0.00000 0.00000
	CHANNELS 6 Xposition Yposition Zposition Zrotation Yrotation Xrotation 
	JOINT LHipJoint
	{
		OFFSET 0 0 0
		CHANNELS 3 Zrotation Yrotation Xrotation
		JOINT LeftUpLeg
		{
			OFFSET 1.53139 -1.83434 0.76626
			CHANNELS 3 Zrotation Yrotation Xrotation
			JOINT LeftLeg
			{
				OFFSET 2.56112 -7.03663 0.00000
				CHANNELS 3 Zrotation Yrotation Xrotation
				JOINT LeftFoot
				{
					OFFSET 2.59983 -7.14299 0.00000
					CHANNELS 3 Zrotation Yrotation Xrotation
					JOINT LeftToeBase
					{
						OFFSET 0.13742 -0.37757 2.00054
						CHANNELS 3 Zrotation Yrotation Xrotation
						End Site
						{
							OFFSET 0.00000 -0.00000 1.02897
						}
					}
				}
			}
		}
	}
	JOINT RHipJoint
	{
		OFFSET 0 0 0
		CHANNELS 3 Zrotation Yrotation Xrotation
		JOINT RightUpLeg
		{
			OFFSET -1.40122 -1.83435 0.76627
			CHANNELS 3 Zrotation Yrotation Xrotation
			JOINT RightLeg
			{
				OFFSET -2.54052 -6.98003 0.00000
				CHANNELS 3 Zrotation Yrotation Xrotation
				JOINT RightFoot
				{
					OFFSET -2.63179 -7.23079 0.00000
					CHANNELS 3 Zrotation Yrotation Xrotation
					JOINT RightToeBase
					{
						OFFSET -0.24131 -0.66299 2.03908
						CHANNELS 3 Zrotation Yrotation Xrotation
						End Site
						{
							OFFSET -0.00000 -0.00000 1.07391
						}
					}
				}
			}
		}
	}
	JOINT LowerBack
	{
		OFFSET 0 0 0
		CHANNELS 3 Zrotation Yrotation Xrotation
		JOINT Spine
		{
			OFFSET 0.01174 2.10302 -0.29778
			CHANNELS 3 Zrotation Yrotation Xrotation
			JOINT Spine1
			{
				OFFSET 0.00772 2.13227 -0.01247
				CHANNELS 3 Zrotation Yrotation Xrotation
				JOINT Neck
				{
					OFFSET 0 0 0
					CHANNELS 3 Zrotation Yrotation Xrotation
					JOINT Neck1
					{
						OFFSET -0.09219 1.60848 0.31481
						CHANNELS 3 Zrotation Yrotation Xrotation
						JOINT Head
						{
							OFFSET 0.13974 1.65456 -0.31134
							CHANNELS 3 Zrotation Yrotation Xrotation
							End Site
							{
								OFFSET 0.04742 1.69515 -0.14578
							}
						}
					}
				}
				JOINT LeftShoulder
				{
					OFFSET 0 0 0
					CHANNELS 3 Zrotation Yrotation Xrotation
					JOINT LeftArm
					{
						OFFSET 3.24909 1.02882 -0.23993
						CHANNELS 3 Zrotation Yrotation Xrotation
						JOINT LeftForeArm
						{
							OFFSET 5.32955 -0.00000 -0.00000
							CHANNELS 3 Zrotation Yrotation Xrotation
							JOINT LeftHand
							{
								OFFSET 3.69232 -0.00000 -0.00000
								CHANNELS 3 Zrotation Yrotation Xrotation
								JOINT LeftFingerBase
								{
									OFFSET 0 0 0
									CHANNELS 3 Zrotation Yrotation Xrotation
									JOINT LeftHandIndex1
									{
										OFFSET 0.53660 -0.00000 -0.00000
										CHANNELS 3 Zrotation Yrotation Xrotation
										End Site
										{
											OFFSET 0.43262 -0.00000 -0.00000
										}
									}
								}
								JOINT LThumb
								{
									OFFSET 0 0 0
									CHANNELS 3 Zrotation Yrotation Xrotation
									End Site
									{
										OFFSET 0.43922 -0.00000 0.43922
									}
								}
							}
						}
					}
				}
				JOINT RightShoulder
				{
					OFFSET 0 0 0
					CHANNELS 3 Zrotation Yrotation Xrotation
					JOINT RightArm
					{
						OFFSET -3.21387 0.93002 -0.34594
						CHANNELS 3 Zrotation Yrotation Xrotation
						JOINT RightForeArm
						{
							OFFSET -5.23431 -0.00000 0.00000
							CHANNELS 3 Zrotation Yrotation Xrotation
							JOINT RightHand
							{
								OFFSET -3.55301 -0.00000 -0.00000
								CHANNELS 3 Zrotation Yrotation Xrotation
								JOINT RightFingerBase
								{
									OFFSET 0 0 0
									CHANNELS 3 Zrotation Yrotation Xrotation
									JOINT RightHandIndex1
									{
										OFFSET -0.77252 -0.00000 -0.00000
										CHANNELS 3 Zrotation Yrotation Xrotation
										End Site
										{
											OFFSET -0.62283 -0.00000 -0.00000
										}
									}
								}
								JOINT RThumb
								{
									OFFSET 0 0 0
									CHANNELS 3 Zrotation Yrotation Xrotation
									End Site
									{
										OFFSET -0.63234 -0.00000 0.63234
									}
								}
							}
						}
					}
				}
			}
		}
	}
}
MOTION
Frames: 8
Frame Time: .0083333
9.4985 17.8276 -25.3061 0 0 0 0 0 0 -21 0 0 0 0 0 0 0 0 0 0 0 0 0 0 21 0 0 0 0 0 0 0 0 0 0 0 0 0 0 0 0 0 0 0 0 0 0 -16 0 0 21 0 0 11 0 0 0 -8 0 0 0 0 0 0 0 0 0 0 0 0 0 0 0 0 0 0 0 0 8 0 0 0 0 0 0 0 0 0 0 0 0 0 0 0 0 0
9.4985 17.8276 -25.3061 177.5820 -1.6073 -179.8850 0.0000 0.0000 0.0000 -24.6438 0.3517 -5.8247 0.9291 6.1404 17.1924 -0.2648 -13.8649 -6.1266 0.0536 -1.4945 -4.1106 0.0000 0.0000 0.0000 16.7524 3.8346 -12.9202 -3.5672 -11.5610 34.1961 -0.9499 -1.0315 -18.8151 -0.0061 0.5027 -1.3812 -4.0829 0.1105 9.5981 0.3643 -0.3572 0.8587 2.7301 -0.1334 -4.4662 -11.0947 -3.8353 -24.2015 8.8236 -4.3830 25.2284 4.4689 -2.0171 12.9058 -0.0000 -0.0000 0.0000 -89.7909 -3.0141 33.3874 14.9239 -24.0399 -3.1949 -0.0000 -0.0000 6.5181 19.5924 24.4038 8.3660 -7.1250 0.0000 -0.0000 -10.5792 55.3817 -2.7183 -0.0000 -0.0000 0.0000 88.8719 1.9710 17.7561 -14.3507 23.2339 -2.9651 0.0000 0.0000 11.2903 -14.3590 8.2893 -2.1136 7.1250 -0.0000 -0.0000 9.0372 -21.4681 5.1660
9.5019 17.8261 -25.2930 177.6210 -1.8755 -179.9430 0.0000 0.0000 0.0000 -24.5863 0.3354 -5.8181 0.9299 6.1431 17.2002 -0.2890 -14.0643 -5.9569 0.0624 -1.6114 -4.4329 0.0000 0.0000 0.0000 16.8062 3.7461 -12.9347 -3.5839 -11.5850 34.2793 -0.9054 -1.5478 -18.5975 -0.0000 0.0013 -0.0037 -4.0532 0.0953 9.6600 0.3521 -0.3765 0.8107 2.7040 -0.1401 -4.5498 -11.2187 -3.8895 -24.1576 8.7549 -4.4761 25.7114 4.4589 -2.1050 13.1061 0.0000 0.0000 0.0000 -89.6334 -2.6057 33.3582 15.1033 -24.2899 -3.2683 -0.0000 -0.0000 6.4255 19.3311 25.1105 8.4674 -7.1250 0.0000 -0.0000 -11.1776 56.0413 -3.0545 0.0000 0.0000 0.0000 88.9884 1.8428 17.4877 -14.2894 23.1469 -2.9409 0.0000 0.0000 11.3662 -14.5090 8.3284 -2.1467 7.1250 -0.0000 -0.0000 8.9277 -21.4217 5.1114
9.5033 17.8219 -25.2792 177.3650 -2.1654 -180.0200 0.0000 0.0000 0.0000 -24.8674 0.3142 -5.6972 0.9161 6.0984 17.0703 -0.3241 -14.2074 -5.5524 0.0294 -1.1075 -3.0448 0.0000 0.0000 0.0000 16.5141 3.5309 -12.9926 -3.6105 -11.6233 34.4119 -0.8849 -1.8242 -18.5177 -0.0006 -0.1607 0.4414 -4.2885 0.0750 9.7179 0.2544 -0.4394 0.8339 2.7435 -0.1693 -4.5524 -10.9859 -3.7377 -24.1529 8.4625 -4.3127 26.0795 4.3418 -2.0669 13.2206 -0.0000 0.0000 0.0000 -89.4479 -2.6159 33.3002 15.0416 -24.2041 -3.2430 -0.0000 -0.0000 6.5172 18.9369 25.3962 8.3708 -7.1250 0.0000 -0.0000 -11.7265 56.2468 -3.2661 -0.0000 0.0000 0.0000 89.0366 1.7938 17.4546 -14.3062 23.1707 -2.9475 0.0000 0.0000 11.2115 -14.4354 8.2609 -2.1181 7.1250 -0.0000 -0.0000 8.9832 -21.4936 5.1292
9.5024 17.8178 -25.2655 177.1510 -2.4435 -180.1830 0.0000 0.0000 0.0000 -25.1123 0.2970 -5.5307 0.9144 6.0928 17.0540 -0.3602 -14.3032 -5.0646 0.0044 -0.4260 -1.1704 0.0000 0.0000 0.0000 16.2647 3.2626 -12.9188 -3.6266 -11.6462 34.4915 -0.8988 -1.7585 -18.6264 -0.0007 -0.1716 0.4714 -4.4367 0.0716 9.7341 0.1569 -0.4713 0.9544 2.7291 -0.1916 -4.4329 -11.2556 -3.7596 -23.8138 8.6209 -4.3599 26.1373 4.4426 -2.1111 13.1924 -0.0000 0.0000 0.0000 -89.3338 -2.8446 32.9408 14.8569 -23.9464 -3.1676 -0.0000 -0.0000 6.9394 18.3961 25.0622 8.0192 -7.1250 0.0000 -0.0000 -12.1246 55.8021 -3.2478 -0.0000 0.0000 0.0000 89.1350 1.8868 17.1853 -14.2801 23.1337 -2.9372 0.0000 0.0000 11.3193 -14.1313 8.2161 -2.0605 7.1250 -0.0000 -0.0000 9.2041 -21.5522 5.2461
9.5045 17.8178 -25.2543 177.0890 -2.7140 -180.2940 0.0000 0.0000 0.0000 -25.1798 0.1634 -5.4438 0.9217 6.1166 17.1232 -0.3851 -14.3479 -4.6912 0.0000 -0.0127 -0.0350 0.0000 0.0000 0.0000 16.2105 3.1066 -12.8200 -3.6316 -11.6533 34.5164 -0.9220 -1.7300 -18.8415 -0.0003 -0.1142 0.3137 -4.4891 0.0586 9.5590 0.1276 -0.4896 1.0968 2.7279 -0.2110 -4.1847 -11.1361 -3.5825 -23.7504 8.4881 -4.1511 26.3541 4.4130 -2.0385 13.2349 -0.0000 -0.0000 0.0000 -89.2559 -3.0665 32.5426 14.7823 -23.8420 -3.1374 -0.0000 -0.0000 7.2011 18.6380 24.6801 8.0163 -7.1250 0.0000 -0.0000 -11.6921 55.4685 -3.0345 -0.0000 -0.0000 0.0000 89.1829 1.9190 17.1407 -14.2856 23.1415 -2.9394 0.0000 0.0000 11.0458 -13.9517 8.0374 -1.9894 7.1250 -0.0000 -0.0000 9.3408 -21.7412 5.2855
9.5158 17.8192 -25.2418 177.1710 -2.8501 -180.3360 0.0000 0.0000 0.0000 -25.0451 0.0539 -5.5064 0.9364 6.1637 17.2602 -0.3882 -14.3926 -4.6933 0.0002 -0.1016 -0.2791 0.0000 0.0000 0.0000 16.3634 3.1964 -12.7720 -3.6276 -11.6477 34.4966 -0.9040 -1.9838 -18.7809 -0.0031 -0.3581 0.9839 -4.5190 0.0870 9.4163 0.1540 -0.4465 1.1660 2.7649 -0.1945 -4.0359 -11.4636 -3.6261 -23.5273 8.8596 -4.2749 26.4828 4.5991 -2.0955 13.2756 -0.0000 -0.0000 0.0000 -89.1313 -3.3096 32.2713 14.6644 -23.6766 -3.0899 -0.0000 -0.0000 7.3665 19.1047 24.7351 8.2465 -7.1250 0.0000 -0.0000 -11.2357 55.6176 -2.9547 -0.0000 -0.0000 0.0000 89.2582 1.8481 17.0468 -14.3135 23.1812 -2.9504 0.0000 0.0000 10.8071 -13.9762 8.1707 -2.0258 7.1250 -0.0000 -0.0000 9.3177 -21.6048 5.3013
9.5375 17.8202 -25.2237 177.6080 -2.9451 -180.4780 0.0000 0.0000 0.0000 -24.4700 0.0902 -5.5772 0.9554 6.2242 17.4364 -0.3906 -14.5135 -4.8080 0.0038 -0.3998 -1.0986 0.0000 0.0000 0.0000 17.0010 3.5155 -12.5701 -3.6160 -11.6311 34.4390 -0.8580 -2.5354 -18.5895 -0.0094 -0.6268 1.7224 -4.3158 0.1424 9.5510 0.3036 -0.3529 1.2155 2.7956 -0.1513 -4.0669 -10.8691 -3.4466 -23.8047 8.0077 -4.0038 27.0451 4.2192 -2.0454 13.4950 -0.0000 -0.0000 0.0000 -88.9962 -3.4972 32.1469 14.5952 -23.5792 -3.0622 -0.0000 -0.0000 7.3170 19.0210 25.2512 8.3660 -7.1250 0.0000 -0.0000 -11.5682 56.1187 -3.1851 -0.0000 -0.0000 0.0000 89.3513 1.8190 16.8483 -14.2751 23.1266 -2.9353 0.0000 0.0000 10.9771 -14.0998 8.3805 -2.0966 7.1250 -0.0000 -0.0000 9.2204 -21.3865 5.2907
